<svg width="56" height="56" viewBox="0 0 56 56" fill="none" xmlns="http://www.w3.org/2000/svg">
<g id="add-file-11-svgrepo-com 1">
<path id="secondary" d="M29.1667 44.3333C29.1667 40.3109 27.5688 36.4532 24.7245 33.6089C21.8802 30.7646 18.0224 29.1667 14 29.1667V11.6667H18.6667V7H44.3333C44.9522 7 45.5457 7.24583 45.9832 7.68342C46.4208 8.121 46.6667 8.71449 46.6667 9.33333V46.6667C46.6667 47.2855 46.4208 47.879 45.9832 48.3166C45.5457 48.7542 44.9522 49 44.3333 49H28.42C28.919 47.4949 29.1711 45.919 29.1667 44.3333Z" fill="#3895BD"/>
<path id="primary" d="M9.33319 44.3333H18.6665M13.9999 49V39.6667M32.6665 30.3333H37.3332M37.3332 21H23.3332" stroke="#060E12" stroke-width="4.66667" stroke-linecap="round" stroke-linejoin="round"/>
<path id="primary_2" d="M28 49H44.3333C44.9522 49 45.5457 48.7542 45.9832 48.3166C46.4208 47.879 46.6667 47.2855 46.6667 46.6667V9.33333C46.6667 8.71449 46.4208 8.121 45.9832 7.68342C45.5457 7.24583 44.9522 7 44.3333 7H18.6667L14 11.6667V30.3333" stroke="#060E12" stroke-width="4.66667" stroke-linecap="round" stroke-linejoin="round"/>
<path id="primary_3" d="M14 11.6667H18.6667V7L14 11.6667Z" stroke="#060E12" stroke-width="4.66667" stroke-linecap="round" stroke-linejoin="round"/>
</g>
</svg>
